<svg width="36" height="36" viewBox="0 0 36 36" fill="none" xmlns="http://www.w3.org/2000/svg">
<path d="M23.2506 31.7629L10.2375 18.7876C10.1127 18.6628 10.0254 18.5317 9.97562 18.3943C9.92522 18.2569 9.90002 18.1006 9.90002 17.9254C9.90002 17.7502 9.92522 17.5939 9.97562 17.4565C10.0254 17.3191 10.1127 17.188 10.2375 17.0632L23.2506 4.0501C23.5506 3.7501 23.9256 3.6001 24.3756 3.6001C24.8256 3.6001 25.2129 3.7627 25.5375 4.0879C25.8627 4.4131 26.0253 4.7944 26.0253 5.2318C26.0253 5.6692 25.8627 6.0505 25.5375 6.3757L13.9878 17.9254L25.5375 29.4751C25.8375 29.8003 25.9875 30.1816 25.9875 30.619C25.9875 31.0564 25.8252 31.4377 25.5006 31.7629C25.1754 32.0881 24.7941 32.2507 24.3567 32.2507C23.9193 32.2507 23.5506 32.0881 23.2506 31.7629Z" fill="black"/>
</svg>
