<svg width="30" height="30" viewBox="0 0 30 30" fill="none" xmlns="http://www.w3.org/2000/svg">
<path d="M30 15C30 23.2843 23.2843 30 15 30C6.71573 30 0 23.2843 0 15C0 6.71573 6.71573 0 15 0C23.2843 0 30 6.71573 30 15Z" fill="#F4F4F4"/>
<path d="M15.0002 15.8752L10.771 20.1043C10.6599 20.2154 10.5177 20.2743 10.3443 20.281C10.1704 20.2882 10.021 20.2293 9.896 20.1043C9.771 19.9793 9.7085 19.8335 9.7085 19.6668C9.7085 19.5002 9.771 19.3543 9.896 19.2293L14.1252 15.0002L9.896 10.771C9.78488 10.6599 9.726 10.5174 9.71933 10.3435C9.71211 10.1702 9.771 10.021 9.896 9.896C10.021 9.771 10.1668 9.7085 10.3335 9.7085C10.5002 9.7085 10.646 9.771 10.771 9.896L15.0002 14.1252L19.2293 9.896C19.3404 9.78488 19.4829 9.72572 19.6568 9.7185C19.8302 9.71183 19.9793 9.771 20.1043 9.896C20.2293 10.021 20.2918 10.1668 20.2918 10.3335C20.2918 10.5002 20.2293 10.646 20.1043 10.771L15.8752 15.0002L20.1043 19.2293C20.2154 19.3404 20.2743 19.4827 20.281 19.656C20.2882 19.8299 20.2293 19.9793 20.1043 20.1043C19.9793 20.2293 19.8335 20.2918 19.6668 20.2918C19.5002 20.2918 19.3543 20.2293 19.2293 20.1043L15.0002 15.8752Z" fill="#A6A6A6"/>
</svg>
