<svg width="24" height="24" viewBox="0 0 24 24" fill="none" xmlns="http://www.w3.org/2000/svg">
<path d="M7.0002 16.5502C5.7502 16.5502 4.67953 16.1045 3.7882 15.2132C2.8962 14.3212 2.4502 13.2502 2.4502 12.0002C2.4502 10.7502 2.8962 9.6792 3.7882 8.7872C4.67953 7.89586 5.7502 7.4502 7.0002 7.4502H10.0502C10.2669 7.4502 10.4462 7.5252 10.5882 7.6752C10.7295 7.8252 10.8002 8.0002 10.8002 8.2002C10.8002 8.41686 10.7295 8.59586 10.5882 8.7372C10.4462 8.8792 10.2669 8.9502 10.0502 8.9502H7.0002C6.16686 8.9502 5.4502 9.2502 4.8502 9.8502C4.2502 10.4502 3.9502 11.1669 3.9502 12.0002C3.9502 12.8335 4.2502 13.5502 4.8502 14.1502C5.4502 14.7502 6.16686 15.0502 7.0002 15.0502H10.0502C10.2669 15.0502 10.4462 15.1209 10.5882 15.2622C10.7295 15.4042 10.8002 15.5835 10.8002 15.8002C10.8002 16.0002 10.7295 16.1752 10.5882 16.3252C10.4462 16.4752 10.2669 16.5502 10.0502 16.5502H7.0002ZM9.0002 12.7502C8.78353 12.7502 8.60453 12.6792 8.4632 12.5372C8.3212 12.3959 8.2502 12.2169 8.2502 12.0002C8.2502 11.7835 8.3212 11.6042 8.4632 11.4622C8.60453 11.3209 8.78353 11.2502 9.0002 11.2502H15.0002C15.2169 11.2502 15.3962 11.3209 15.5382 11.4622C15.6795 11.6042 15.7502 11.7835 15.7502 12.0002C15.7502 12.2169 15.6795 12.3959 15.5382 12.5372C15.3962 12.6792 15.2169 12.7502 15.0002 12.7502H9.0002ZM13.9502 16.5502C13.7335 16.5502 13.5545 16.4752 13.4132 16.3252C13.2712 16.1752 13.2002 16.0002 13.2002 15.8002C13.2002 15.5835 13.2712 15.4042 13.4132 15.2622C13.5545 15.1209 13.7335 15.0502 13.9502 15.0502H17.0002C17.8335 15.0502 18.5502 14.7502 19.1502 14.1502C19.7502 13.5502 20.0502 12.8335 20.0502 12.0002C20.0502 11.1669 19.7502 10.4502 19.1502 9.8502C18.5502 9.2502 17.8335 8.9502 17.0002 8.9502H13.9502C13.7335 8.9502 13.5545 8.8792 13.4132 8.7372C13.2712 8.59586 13.2002 8.41686 13.2002 8.2002C13.2002 8.0002 13.2712 7.8252 13.4132 7.6752C13.5545 7.5252 13.7335 7.4502 13.9502 7.4502H17.0002C18.2502 7.4502 19.3209 7.89586 20.2122 8.7872C21.1042 9.6792 21.5502 10.7502 21.5502 12.0002C21.5502 13.2502 21.1042 14.3212 20.2122 15.2132C19.3209 16.1045 18.2502 16.5502 17.0002 16.5502H13.9502Z" fill="#616161"/>
</svg>
